
<svg xmlns="http://www.w3.org/2000/svg" width="1261" height="286" fill="none" viewBox="0 0 1261 286"><path fill="#000" fill-rule="evenodd" d="M111.041 22.958h45.918c20.524 0 36.783 0 49.501 1.709 13.088 1.764 23.685 5.471 32.049 13.824 8.352 8.364 12.06 18.961 13.824 32.049 1.709 12.73 1.709 28.977 1.709 49.501v23.584c0 20.525 0 36.783-1.709 49.502-1.764 13.087-5.472 23.685-13.824 32.048-5.182 5.182-11.223 8.576-18.191 10.832a8 8 0 0 1 .224 1.91v16.75a8.38 8.38 0 0 1-8.375 8.375 8.375 8.375 0 0 1-8.375-8.375v-15.343c-12.306 1.384-27.716 1.384-46.833 1.384h-45.918c-19.117 0-34.527 0-46.833-1.384v15.343a8.376 8.376 0 0 1-16.75 0v-16.75q0-1.006.224-1.921c-6.968-2.245-13.01-5.639-18.19-10.832-8.353-8.352-12.06-18.95-13.825-32.037-1.709-12.73-1.709-28.977-1.709-49.502v-23.584c0-20.524 0-36.783 1.709-49.501C17.43 57.452 21.139 46.855 29.49 38.49c8.364-8.352 18.961-12.06 32.048-13.824 12.73-1.709 28.978-1.709 49.502-1.709m31.334 201h13.958c21.295 0 36.426-.022 47.905-1.563 11.223-1.508 17.699-4.344 22.423-9.067 4.723-4.724 7.56-11.201 9.067-22.434 1.541-11.48 1.564-26.599 1.564-47.894v-22.333c0-21.295-.023-36.415-1.564-47.905-1.507-11.223-4.344-17.7-9.067-22.423-4.724-4.724-11.2-7.56-22.434-9.067-11.468-1.541-26.599-1.564-47.894-1.564h-13.958zm-16.75-184.25v184.25h-13.958c-21.295 0-36.415-.022-47.905-1.563-11.223-1.508-17.7-4.344-22.423-9.067-4.724-4.724-7.56-11.201-9.067-22.434-1.541-11.48-1.564-26.599-1.564-47.894v-22.333c0-21.295.023-36.415 1.564-47.905 1.507-11.223 4.343-17.7 9.067-22.423 4.724-4.724 11.2-7.56 22.434-9.067 11.48-1.541 26.599-1.564 47.894-1.564zM100.5 101.125a8.374 8.374 0 0 1 8.375 8.375v44.667a8.374 8.374 0 1 1-16.75 0V109.5a8.376 8.376 0 0 1 8.375-8.375m67 0a8.374 8.374 0 0 1 8.375 8.375v44.667a8.374 8.374 0 1 1-16.75 0V109.5a8.374 8.374 0 0 1 8.375-8.375" clip-rule="evenodd"/><path fill="#000" fill-rule="evenodd" d="M111.041 22.958h45.918c20.524 0 36.783 0 49.501 1.709 13.088 1.764 23.685 5.471 32.049 13.824 8.352 8.364 12.06 18.961 13.824 32.049 1.709 12.73 1.709 28.977 1.709 49.501v23.584c0 20.525 0 36.783-1.709 49.502-1.764 13.087-5.472 23.685-13.824 32.048-5.182 5.182-11.223 8.576-18.191 10.832a8 8 0 0 1 .224 1.91v16.75a8.38 8.38 0 0 1-8.375 8.375 8.375 8.375 0 0 1-8.375-8.375v-15.343c-12.306 1.384-27.716 1.384-46.833 1.384h-45.918c-19.117 0-34.527 0-46.833-1.384v15.343a8.376 8.376 0 0 1-16.75 0v-16.75q0-1.006.224-1.921c-6.968-2.245-13.01-5.639-18.19-10.832-8.353-8.352-12.06-18.95-13.825-32.037-1.709-12.73-1.709-28.977-1.709-49.502v-23.584c0-20.524 0-36.783 1.709-49.501C17.43 57.452 21.139 46.855 29.49 38.49c8.364-8.352 18.961-12.06 32.048-13.824 12.73-1.709 28.978-1.709 49.502-1.709m31.334 201h13.958c21.295 0 36.426-.022 47.905-1.563 11.223-1.508 17.699-4.344 22.423-9.067 4.723-4.724 7.56-11.201 9.067-22.434 1.541-11.48 1.564-26.599 1.564-47.894v-22.333c0-21.295-.023-36.415-1.564-47.905-1.507-11.223-4.344-17.7-9.067-22.423-4.724-4.724-11.2-7.56-22.434-9.067-11.468-1.541-26.599-1.564-47.894-1.564h-13.958zm-16.75-184.25v184.25h-13.958c-21.295 0-36.415-.022-47.905-1.563-11.223-1.508-17.7-4.344-22.423-9.067-4.724-4.724-7.56-11.201-9.067-22.434-1.541-11.48-1.564-26.599-1.564-47.894v-22.333c0-21.295.023-36.415 1.564-47.905 1.507-11.223 4.343-17.7 9.067-22.423 4.724-4.724 11.2-7.56 22.434-9.067 11.48-1.541 26.599-1.564 47.894-1.564zM100.5 101.125a8.374 8.374 0 0 1 8.375 8.375v44.667a8.374 8.374 0 1 1-16.75 0V109.5a8.376 8.376 0 0 1 8.375-8.375m67 0a8.374 8.374 0 0 1 8.375 8.375v44.667a8.374 8.374 0 1 1-16.75 0V109.5a8.374 8.374 0 0 1 8.375-8.375" clip-rule="evenodd"/><path fill="#000" d="M418.145 80.822q4.33.62 5.876 2.629 1.701 2.01 1.701 5.257 0 10.668-11.442 9.895l-5.412-.463a542 542 0 0 0-18.244-1.237 366 366 0 0 0-18.864-.464h-6.957q-1.856 22.883-3.866 41.746l26.594-.464q5.721 0 7.577 2.01 2.01 2.01 2.01 5.412 0 5.257-3.093 8.349-3.092 2.938-8.813 2.938h-26.44l-.927 6.649q-3.247 25.512-13.916 36.335-10.513 10.823-29.068 10.823-10.514 0-19.327-4.484-8.813-4.638-12.988-11.132-1.701-2.63-1.701-6.34t1.701-6.494q1.856-2.783 4.484-2.783 1.855 0 3.556 1.237 1.855 1.238 4.639 4.793 7.422 9.741 18.399 9.741 8.814 0 14.689-7.112 6.03-7.267 7.731-22.729l.927-8.504h-7.421q-3.557 0-6.185-2.01-2.474-2.01-2.474-5.721 0-4.792 2.474-7.267 2.474-2.628 7.267-2.628 4.33 0 8.504-.155 1.856-17.007 4.02-41.283-16.698 1.547-23.502 5.412t-6.803 11.442q0 5.256 3.092 10.05.928 1.39.928 2.783 0 2.783-3.092 4.948-3.093 2.01-6.958 2.01-4.175 0-7.112-2.474-1.856-1.546-3.557-6.34t-1.7-10.668q0-19.173 19.636-27.831 19.791-8.66 57.672-8.659 26.286 0 46.385 2.783m.606 45.922q-6.495 0-9.741-2.938-3.247-3.092-3.247-8.504t4.174-8.968q4.33-3.711 10.669-3.711 5.72 0 9.277 2.783t3.556 7.886q0 6.185-4.02 9.895-4.02 3.557-10.668 3.557m-1.237 83.029q-10.05 0-14.689-7.112-4.484-7.113-4.484-18.864 0-6.957 1.701-17.781 1.856-10.977 4.638-20.409 1.392-4.948 3.711-6.803 2.319-1.856 7.422-1.856 7.885 0 7.885 5.257 0 3.866-2.937 17.936-3.711 17.008-3.711 23.038 0 4.638 1.237 7.112t4.174 2.474q2.784 0 6.958-3.865t11.133-12.215q1.855-2.165 4.174-2.165 2.01 0 3.093 1.856 1.237 1.855 1.237 5.102 0 6.185-2.938 9.586-15.308 18.71-28.604 18.709m30.01 0q-5.875 0-8.349-6.185-2.32-6.184-2.32-19.791 0-20.1 5.721-38.19 1.392-4.484 4.484-6.494 3.247-2.165 8.968-2.165 3.092 0 4.329.773 1.237.774 1.237 2.938 0 2.474-2.319 11.133-1.547 6.184-2.474 10.823-.927 4.638-1.546 11.442 5.102-13.298 11.441-21.647 6.34-8.35 12.37-11.905 6.184-3.557 11.287-3.557 10.05 0 10.05 10.05 0 6.031-3.402 21.802-2.937 13.45-2.937 17.781 0 6.184 4.484 6.184 3.092 0 7.267-3.711 4.33-3.865 11.441-12.369 1.856-2.165 4.175-2.165 2.01 0 3.092 1.856 1.237 1.855 1.237 5.102 0 6.185-2.937 9.586-6.65 8.195-14.38 13.452-7.576 5.257-17.317 5.257-7.885 0-11.906-4.484-4.02-4.639-4.02-13.297 0-4.329 2.165-15.462 2.01-9.74 2.01-13.451 0-2.474-1.701-2.474-2.01 0-5.721 5.257-3.555 5.102-7.421 13.606-3.711 8.504-6.03 17.936-1.701 7.266-4.02 9.895-2.165 2.474-6.958 2.474m153.549-35.253q2.01 0 3.093 1.856 1.236 1.855 1.237 5.102 0 6.185-2.938 9.586-6.34 7.732-13.916 13.297-7.575 5.412-14.998 5.412-11.75 0-17.935-13.761-6.494 8.195-11.442 10.978-4.793 2.783-11.287 2.783-9.432 0-15.616-6.958-6.03-7.112-6.03-18.399 0-12.37 5.257-22.883 5.257-10.669 14.379-17.318 9.277-6.802 20.719-8.04 2.937-29.995 11.132-51.178 8.349-21.337 21.801-21.337 6.65 0 10.978 6.03 4.484 6.03 4.484 18.245 0 17.318-8.504 40.509-8.503 23.193-22.729 47.623.62 8.967 2.629 12.833 2.165 3.865 5.411 3.865 4.176 0 8.504-3.711 4.33-3.71 11.597-12.369 1.855-2.165 4.174-2.165m-18.244-95.708q-2.938 0-5.876 10.514-2.937 10.36-5.102 27.213-2.01 16.853-2.938 35.253 17.317-37.727 17.317-60.61 0-5.875-1.082-9.123-.929-3.246-2.319-3.247m-44.53 115.345q2.938 0 5.875-2.32 2.938-2.474 7.422-8.967-1.546-8.35-1.546-18.709 0-3.711.309-12.06-8.504 2.628-14.225 11.442-5.566 8.658-5.566 19.327 0 11.286 7.731 11.287m82.975 15.616q-5.721 0-8.195-2.474-2.474-2.628-2.474-9.741 0-4.793.928-12.214 1.082-7.576 3.402-20.719 4.02-24.275 6.339-42.056 1.391-11.132 1.391-18.554 0-6.958-5.102-6.958-4.02 0-9.741 4.175-5.567 4.02-12.369 12.988-2.165 2.937-4.793 2.937-2.165 0-3.866-2.01-1.546-2.164-1.546-4.793 0-2.473.928-4.948 1.082-2.628 3.401-5.875 7.422-10.36 16.544-15.926 9.123-5.72 18.245-5.72 8.504 0 12.988 5.411 4.639 5.412 4.639 15.771 0 4.175-.774 9.896-.773 5.565-1.391 9.122-.619 3.556-.928 4.948 8.814-25.203 19.791-35.098 10.978-10.05 24.121-10.05 10.05 0 15.77 7.112 5.876 7.113 5.876 20.1 0 5.103-1.392 12.679 7.73-21.338 18.091-30.614 10.359-9.277 23.811-9.277 10.823 0 16.544 6.957 5.875 6.958 5.875 19.482 0 6.803-2.01 16.544l-9.432 44.221q-1.545 7.73-1.546 13.297 0 6.494 2.938 9.741 3.092 3.247 8.504 3.247 5.103 0 9.895-3.402 4.948-3.402 11.597-11.287 1.855-2.165 4.174-2.165 2.01 0 3.093 1.856 1.236 1.855 1.237 5.102 0 6.03-2.938 9.586-8.04 9.741-15.926 14.225-7.885 4.484-16.544 4.484-13.142 0-20.564-7.731-7.42-7.885-7.421-21.028 0-9.122 3.71-26.439l6.185-28.295q.31-1.392 1.082-4.948.774-3.556 1.237-6.649.464-3.246.464-6.339 0-5.412-2.164-8.04-2.01-2.783-5.876-2.783-7.267 0-15.307 9.432-7.886 9.276-15.152 30.923-7.112 21.646-11.597 56.281-1.082 9.276-3.865 12.524-2.629 3.092-8.659 3.092-5.256 0-7.731-2.474-2.319-2.473-2.319-9.277 0-6.34 1.701-16.544 1.701-10.36 4.329-24.275 7.113-37.418 7.113-48.24 0-5.876-2.32-8.659-2.164-2.783-6.648-2.783-7.576 0-15.617 8.659-8.04 8.504-15.77 30.459-7.577 21.801-12.679 59.064-1.083 7.885-3.247 10.978-2.01 3.092-8.04 3.092m241.268-34.943q2.01 0 3.092 2.01 1.237 1.855 1.237 4.793 0 3.556-1.082 5.566t-3.402 3.556l-29.686 19.946q-5.876 32.005-15.462 50.25-9.432 18.4-24.12 18.4-7.886 0-12.833-4.948-4.948-4.793-4.948-12.679 0-7.266 3.247-14.843 3.402-7.576 12.369-17.472 9.122-9.74 25.667-22.419l.463-3.556q1.083-5.72 2.474-16.39-3.091 11.133-8.658 17.008-5.567 5.721-11.751 5.721-6.958 0-11.442-6.339-4.329-6.495-4.329-16.08 0-11.597 1.546-21.183 1.547-9.741 5.102-20.564 1.546-4.638 4.33-6.649 2.783-2.01 8.813-2.01 3.402 0 4.638 1.083 1.392 1.082 1.392 3.247 0 1.236-1.701 8.349-1.546 5.721-2.474 10.359a345 345 0 0 0-2.164 12.215q-.928 5.721-.928 9.432 0 5.875 3.247 5.875 2.319 0 5.721-4.638 3.556-4.64 7.421-14.07 4.02-9.432 7.731-23.193 1.238-4.638 3.711-6.649 2.628-2.01 7.731-2.01 3.556 0 4.948.928 1.39.928 1.391 3.092 0 3.866-4.02 26.595l-4.02 24.893q11.905-8.969 23.193-16.389 2.01-1.237 3.556-1.237m-67.722 89.523q3.865 0 8.658-8.968 4.794-8.967 9.586-29.841-11.905 10.05-17.317 18.245-5.256 8.35-5.257 14.534 0 2.628.928 4.329 1.082 1.701 3.402 1.701m105.683-54.116q-20.564 0-32.934-7.731-12.369-7.885-12.369-23.966 0-8.504 2.938-12.987 2.937-4.484 8.658-4.484 4.175 0 6.803 2.164 2.63 2.165 2.629 5.567 0 3.092-.464 5.411 0 .618-.309 2.165a33 33 0 0 0-.155 3.247q0 6.957 6.958 10.359 7.113 3.402 19.791 3.402 13.143 0 20.564-4.639 7.422-4.793 7.422-13.297 0-5.257-3.402-8.968-3.401-3.865-8.504-6.339-5.101-2.628-14.379-6.339-11.906-4.639-19.482-8.814-7.422-4.174-12.833-11.287-5.257-7.266-5.257-17.935 0-11.133 5.875-19.791 6.03-8.659 17.163-13.452 11.288-4.793 26.439-4.793 11.287 0 20.719 3.402 9.432 3.246 14.998 10.05 5.721 6.803 5.721 16.698 0 9.74-2.938 14.689-2.937 4.947-8.659 4.948-4.02 0-6.803-2.474-2.628-2.474-2.628-5.876 0-2.937.464-5.411.464-4.639.464-5.876 0-6.493-6.34-9.895t-15.771-3.402q-13.297 0-20.409 4.948-6.958 4.793-6.958 13.606 0 5.876 3.556 10.05 3.711 4.176 9.123 6.958 5.41 2.784 15.152 6.649 11.751 4.792 18.863 8.658 7.113 3.866 12.061 10.514 5.102 6.65 5.102 16.39 0 18.245-13.916 28.14-13.76 9.741-36.953 9.741m131.517-35.717q2.01 0 3.09 1.856c.83 1.237 1.24 2.937 1.24 5.102q0 6.185-2.94 9.586c-4.43 5.464-9.28 9.947-14.53 13.452q-7.89 5.257-18.09 5.257-31.546 0-31.545-44.375 0-6.802.464-13.761h-6.03q-4.64 0-6.34-1.701-1.546-1.701-1.546-5.411 0-8.66 6.958-8.659h8.813q2.628-17.008 8.04-31.078t12.988-22.42q7.73-8.349 16.548-8.349 6.495 0 10.2 5.721c2.47 3.814 3.71 8.607 3.71 14.38q0 23.965-20.1 41.746h17.32c1.65 0 2.83.361 3.55 1.082.73.722 1.09 2.062 1.09 4.02 0 7.113-5.83 10.669-17.47 10.669h-18.868q-.309 7.731-.309 12.06 0 16.08 3.71 22.574 3.866 6.495 12.057 6.494c4.44 0 8.35-1.34 11.75-4.02q5.115-4.02 12.06-12.06c1.24-1.443 2.63-2.165 4.18-2.165m-27.06-85.658c-1.54 0-3.3 1.959-5.256 5.876q-2.783 5.721-5.411 16.08-2.475 10.204-4.175 22.729c6.082-5.257 10.622-11.133 13.602-17.627 3.1-6.597 4.64-12.575 4.64-17.935 0-6.082-1.13-9.123-3.4-9.123m34.57 120.911c-4.64 0-8.45-2.113-11.44-6.339-2.89-4.33-4.33-9.69-4.33-16.08 0-7.731.51-14.792 1.55-21.183q1.545-9.741 5.1-20.564c1.03-3.092 2.47-5.309 4.33-6.649 1.85-1.34 4.79-2.01 8.81-2.01 2.27 0 3.81.361 4.64 1.083.93.721 1.39 1.804 1.39 3.247 0 .824-.57 3.607-1.7 8.349-1.03 3.814-1.86 7.267-2.47 10.359-2.07 10.824-3.1 18.039-3.1 21.647q0 3.247.78 4.638c.51.825 1.34 1.237 2.47 1.237 1.55 0 3.45-1.546 5.72-4.638 2.37-3.093 4.85-7.783 7.42-14.07 2.68-6.288 5.26-14.019 7.73-23.193.83-3.092 2.07-5.309 3.71-6.649 1.76-1.34 4.33-2.01 7.74-2.01 2.37 0 4.02.31 4.94.928.93.515 1.39 1.546 1.39 3.092 0 2.577-1.28 9.638-3.86 21.183-2.89 13.194-4.33 21.337-4.33 24.43 0 1.958.41 3.504 1.24 4.638q1.23 1.546 3.24 1.546c2.07 0 4.49-1.237 7.27-3.711 2.89-2.577 6.7-6.7 11.44-12.369 1.24-1.443 2.63-2.165 4.18-2.165q2.01 0 3.09 1.856c.82 1.237 1.24 2.937 1.24 5.102q0 6.185-2.94 9.586c-4.43 5.464-9.23 9.947-14.38 13.452-5.05 3.505-10.82 5.257-17.32 5.257-4.95 0-8.6-1.907-10.98-5.721-2.26-3.814-3.4-9.174-3.4-16.08-1.75 7.009-4.38 12.421-7.88 16.235-3.51 3.711-7.27 5.566-11.29 5.566m164.23-44.066c2.88 0 4.33 2.165 4.33 6.494 0 8.246-6.6 12.369-19.79 12.369-.52 0-3.41-.154-8.66-.463 1.13 5.463 2.01 11.699 2.62 18.708.73 6.907 1.09 13.813 1.09 20.719 0 11.132-1.91 19.636-5.72 25.512-3.71 5.875-8.51 8.813-14.38 8.813q-11.13 0-15.93-15.771c-3.09-10.514-4.64-26.388-4.64-47.622 0-5.463.16-10.978.47-16.544-.93.103-2.43.155-4.49.155-2.78 0-5.05.051-6.8.154 1.03 7.628 1.8 14.947 2.32 21.956q.93 10.514.93 23.347c0 11.132-1.91 19.636-5.72 25.512-3.71 5.875-8.51 8.813-14.38 8.813-7.43 0-12.73-5.257-15.93-15.771-3.09-10.514-4.64-26.388-4.64-47.622q0-29.84 5.88-60.301c4.02-20.409 9.58-37.262 16.7-50.56q10.665-19.945 24.12-19.945c4.64 0 8.24 1.958 10.82 5.875q4.02 5.721 4.02 16.544 0 16.854-9.12 37.572c-5.98 13.71-16.6 28.141-31.85 43.293-.93 9.071-1.4 17.884-1.4 26.44 0 10.617.37 21.491 1.09 32.624.72 11.235 1.9 16.853 3.55 16.853 1.55 0 2.79-1.288 3.71-3.865.93-2.577 1.4-6.649 1.4-12.215 0-10.102-.42-19.018-1.24-26.749-.72-7.834-1.6-14.122-2.63-18.863-.21-.722-.31-1.804-.31-3.247 0-4.432 1.75-8.092 5.26-10.978q5.415-4.33 14.22-4.484h5.88c1.96-17.111 5.15-33.191 9.58-48.24 4.54-15.153 10-27.368 16.39-36.645q9.75-13.915 20.88-13.915 7.26 0 11.28 6.494c2.79 4.329 4.18 10.153 4.18 17.472q0 13.606-5.1 30.459c-3.4 11.236-8.46 21.801-15.16 31.697-6.59 9.792-14.48 17.162-23.65 22.11q-1.08 10.359-1.08 21.492 0 15.925 1.08 32.624c.72 11.235 1.9 16.853 3.55 16.853 1.55 0 2.79-1.288 3.71-3.865.93-2.577 1.4-6.649 1.4-12.215 0-8.04-.42-15.719-1.24-23.038-.83-7.319-1.7-13.297-2.63-17.936-.21-.824-.31-1.958-.31-3.401 0-4.226 1.44-7.783 4.33-10.669q4.335-4.484 9.9-4.484c3.5 0 6.7-.103 9.58-.309 2.99-.309 4.9-.515 5.72-.618q5.265-.62 6.81-.619m-65.87-86.74c-1.86 0-4.07 3.144-6.65 9.432-2.47 6.287-4.95 14.637-7.42 25.048s-4.59 21.491-6.34 33.242c7.83-9.277 13.71-19.327 17.63-30.15q6.03-16.39 6.03-29.687 0-3.865-.93-5.875c-.62-1.34-1.39-2.01-2.32-2.01m50.25 0c-2.06 0-4.59 3.608-7.58 10.823-2.88 7.216-5.77 16.647-8.65 28.295q-4.185 17.472-6.96 36.181c5.87-4.639 10.82-10.824 14.84-18.555 4.12-7.73 7.17-15.822 9.12-24.274 2.07-8.453 3.1-16.132 3.1-23.038q0-9.432-3.87-9.432"/></svg>